# xmcd
#
# Track frame offsets:
#	150
#	20029
#	42870
#	61752
#	79390
#	97391
#	117095
#	139550
#	163307
#	178855
#
# Disc length: 2638 seconds
#
# Revision: 0
# Processed by: cddbd v1.5PL3 Copyright (c) Steve Scherf et al.
# Submitted via: dBpowerAMP V4.0
#
DISCID=8b0a4c0a
DTITLE=Falguni Pathak - Teri Main Prem Deewani
DYEAR=2001
DGENRE=Other
TTITLE0=Teri Main Prem Deewani
TTITLE1=Mane Chudi Piravan Lagyo
TTITLE2=Rim Jhim
TTITLE3=Na Russia Na Japan Ki
TTITLE4=Mare Ghagre
TTITLE5=Mar Jani Jhanjar
TTITLE6=Aayee Pardes Se
TTITLE7=Jab Se Gaye Pardes
TTITLE8=Ankh Ladake
TTITLE9=Sajna Tu Mat Jai Re
EXTD=Univeral Music India Ltd
EXTT0=
EXTT1=
EXTT2=
EXTT3=
EXTT4=
EXTT5=
EXTT6=
EXTT7=
EXTT8=
EXTT9=
PLAYORDER=
